<?xml version="1.0" standalone="no"?>
<!DOCTYPE svg PUBLIC "-//W3C//DTD SVG 20010904//EN"
 "http://www.w3.org/TR/2001/REC-SVG-20010904/DTD/svg10.dtd">
<svg version="1.0" xmlns="http://www.w3.org/2000/svg"
 width="160.000000pt" height="120.000000pt" viewBox="0 0 160.000000 120.000000"
 preserveAspectRatio="xMidYMid meet">

<g transform="translate(0.000000,120.000000) scale(0.100000,-0.100000)"
fill="#000000" stroke="none">
<path d="M540 1164 c-85 -18 -212 -82 -277 -139 -115 -102 -155 -194 -222
-519 l-39 -188 66 7 c37 3 77 9 90 12 21 5 22 3 16 -36 l-7 -41 34 6 c19 3 39
7 46 9 6 2 17 30 23 62 6 32 14 66 17 77 3 12 1 16 -6 12 -15 -10 -15 -9 19
149 39 180 39 179 -2 162 -50 -20 -66 -53 -96 -191 -26 -126 -28 -130 -56
-137 -17 -5 -31 -7 -33 -5 -5 5 65 319 82 366 81 228 350 367 590 305 65 -17
149 -54 141 -62 -3 -3 -144 -48 -313 -99 -169 -51 -301 -93 -293 -93 42 -2
820 113 820 122 0 25 -124 128 -202 166 -135 67 -262 85 -398 55z"/>
<path d="M1190 864 c-100 -13 -143 -32 -159 -71 -6 -15 -22 -79 -36 -142 -26
-121 -36 -141 -66 -141 -11 0 -19 -6 -19 -12 0 -7 -3 -24 -7 -37 -6 -23 -5
-24 41 -19 26 3 55 13 65 23 29 25 57 100 77 199 17 89 38 126 69 126 20 0 20
-5 -15 -171 -21 -101 -41 -166 -67 -219 -82 -168 -262 -280 -450 -280 -65 0
-160 16 -167 29 -3 4 107 47 244 96 137 49 248 91 246 92 -4 4 -760 -109 -766
-114 -10 -9 86 -84 152 -118 179 -95 376 -97 558 -9 56 28 95 57 155 118 113
113 134 161 190 427 25 117 44 218 43 224 -2 8 -27 8 -88 -1z"/>
<path d="M1444 839 c-10 -11 -24 -39 -29 -62 -10 -38 -14 -42 -53 -50 -42 -8
-82 -45 -82 -74 0 -12 11 -13 54 -8 l54 7 -13 -61 -13 -61 38 0 c35 0 39 3 45
33 21 102 24 107 60 107 38 0 79 31 90 68 6 21 5 22 -37 16 -24 -3 -49 -8 -57
-10 -11 -3 -12 5 -6 42 3 26 9 53 12 60 8 23 -41 17 -63 -7z"/>
<path d="M895 816 c-35 -16 -62 -44 -99 -106 l-28 -45 6 40 c3 22 9 55 12 74
7 32 6 33 -17 26 -27 -8 -57 -32 -70 -56 -9 -19 -79 -342 -75 -347 2 -1 21 0
43 4 39 6 41 8 56 64 9 31 23 62 30 69 12 10 16 1 22 -53 l7 -65 46 6 c26 3
48 7 49 8 2 1 -6 46 -16 101 l-19 99 59 91 c32 50 59 94 59 97 0 11 -33 7 -65
-7z"/>
<path d="M595 771 c-50 -22 -53 -26 -116 -142 -28 -52 -48 -85 -44 -74 16 46
55 208 51 212 -2 2 -20 -3 -40 -11 -25 -10 -41 -26 -50 -48 -18 -42 -80 -338
-73 -345 3 -3 24 -2 46 2 40 7 42 8 97 116 31 61 58 108 60 106 2 -2 -5 -29
-15 -60 -11 -31 -23 -77 -27 -102 l-6 -46 38 7 c22 3 42 9 45 13 9 9 81 359
77 376 -2 12 -9 11 -43 -4z"/>
</g>
</svg>
